<svg version="1" xmlns="http://www.w3.org/2000/svg" width="1185.333" height="1185.333" viewBox="0 0 889.000000 889.000000"><path d="M425.7 125.8C412 146.5 390 179.9 376.8 200c-13.1 20.1-33.9 51.6-46 70-12.2 18.4-22.2 34.2-22.4 35-.2.9 2.6 3.6 7.3 7 18.7 13.5 34.7 38.1 41.4 63.5 2.1 7.9 2.4 11.2 2.4 27.5 0 16.4-.3 19.5-2.4 27.5-7.8 29-24.1 52.2-47.9 67.8-11.9 7.9-20 11.8-31.4 15.1-12.5 3.6-24.4 5-38.3 4.3-19.2-.9-33.5-4.8-49.5-13.5-4.7-2.6-8.8-4.8-9.1-5-.3-.1-9.5 13.2-20.4 29.8l-19.7 30h-4.5c-2.4 0-7.7.5-11.6 1.1-26.9 3.9-44.2 11.3-57.3 24.3-8.6 8.6-12.9 16.8-15 28.7C49 631.8 54 648.8 66.5 661c3.7 3.6 4.8 4.2 5.5 3 2.2-3.8 7.1-10 8-10 .5 0 1.5 1 2.1 2.2 2.3 4.2 10.4 12 14.9 14.3 6.7 3.4 19.4 7.1 29 8.5 11.7 1.7 51.9.8 61.4-1.4 14.4-3.4 21.6-9.6 21.6-18.8 0-6-1.9-9.8-6.5-13.4-2-1.5-3.2-3-2.8-3.5.7-.7 10.9-3.9 12.3-3.9.4 0 2 2.4 3.5 5.3 5.6 10.2 4.3 29.6-2.3 36.1-2.7 2.5-4.4 2.9-16.8 4.7-20.2 2.9-57.1 3.6-72.9 1.5-19.2-2.5-38.1-9.1-47.6-16.7-2.1-1.7-4.3-2.9-4.8-2.7-.8.2-6.9 9.3-32.6 48.3l-3.3 5 415.1.3c228.3.1 415.2 0 415.4-.2.2-.2-7.4-12.3-16.9-26.7-9.6-14.5-22-33.5-27.7-42.2L810.8 635l1.1-31.3c.6-17.1 1.4-34 1.8-37.3.8-8.9-.1-9.2-15.3-4.8-16.4 4.7-15.4 4.1-11.5 7.4 3 2.5 3.4 3.5 4.2 10.2.4 4 .8 11.8.9 17.3v10l-17.2-26.2c-9.5-14.5-25.2-38.3-34.8-52.9-9.6-14.6-17.8-27-18.1-27.6-.3-.5-5.3 1.6-11 4.6-9.9 5.2-19.7 8.8-31.9 11.8-7.4 1.8-35.4 1.7-44.5-.1-43.6-8.6-78.3-41.4-89.6-84.6-6.6-25-4-53.5 7-77.1 7.7-16.4 21.2-33.1 35.2-43.5l6.9-5.1-2.2-3.7c-1.2-2-7.7-11.8-14.3-21.8-6.6-10.1-17.7-26.9-24.7-37.5-6.9-10.6-21.1-32.1-31.4-47.8-10.3-15.7-29.9-45.6-43.7-66.5-13.7-20.9-25.4-38.6-26.1-39.2-.9-1-6.7 7.3-25.9 36.5zm33.2-3.5c11.8 27.8 12.6 29.2 37.9 67.5 7 10.6 17.2 26.2 22.7 34.5 53.5 81.3 50.4 76.2 48.4 80-.7 1.2-4.5 5.7-8.6 10.1-9.7 10.3-15.4 18.4-21.7 30.9-9.7 19.1-13.6 36.1-13.6 58.9 0 61.9 43.3 114.3 104.5 126.4 11 2.2 31.6 2.2 42.9 0 9.4-1.8 22.7-6.3 28.1-9.4 5.3-3.2 10.1-4.5 12.3-3.3 1.1.6 3.2 3.2 4.8 5.8 1.5 2.7 15.5 24 31.1 47.5 23.1 34.9 28.5 43.7 29.4 48 .9 3.8.8 13.5-.1 37.4-1.3 36.3-1.3 36.5 5.4 39.8 3.4 1.7 4.5 1.7 8.9.7 6.5-1.5 14.5-6.6 15.3-9.7.6-2.3 5.3-4.4 13.2-5.8 2.9-.5 3.2-.3 3.2 1.8 0 1.3 2.5 5.9 5.5 10.2 7.4 10.6 9.5 13.8 9.5 14.6 0 2.7-13.3 2.9-188 3.1-171.6.2-180.7.3-184.1 2-2 1-4.6 2.7-5.7 3.7-1.3 1.2-3.5 2-5.7 2H451V413c0-168.3.3-306 .8-306 .4 0 3.6 6.9 7.1 15.3zm-21.5 27.4c.9 5.5.6 503.4-.3 505.7-.6 1.6-.9 1.7-1.7.5-.5-.8-1-102.6-1.2-255.7-.2-215.5 0-254.2 1.2-254.2.8 0 1.6 1.5 2 3.7zM332.6 301.5c1 4 .1 4.9-2.6 2.7-2.1-1.7-2.2-2.2-1.1-3.6 1.9-2.2 3-2 3.7.9zm27.3 36.3c15.9 26.5 21.7 61.8 14.7 88.8-1.6 6.2-3.1 8.8-1.9 3.3.5-1.9.8-12.9.8-24.4 0-19.5-.2-21.8-2.7-31.7-4.3-16.7-9.6-29.6-18.8-45.3l-2.3-4 2.6 2.5c1.4 1.4 4.8 6.2 7.6 10.8zm-14.4 220.4c1.9 3.2 2 5.4 2 55.8 0 56.9.1 57.7 5.5 64.1l2.6 3.2 9.1-1.7c12.6-2.5 60.8-2.9 62.3-.6.5.8 1 1.8 1 2.2 0 2.5-19.3 3.8-58.4 3.8h-35.8l.6-3c1.5-7.7 2.7-47.7 2.4-79.5-.3-32.1-.5-35.3-2.1-37.9-1.6-2.4-2.4-2.8-5.2-2.3-3.4.6-6.7-1.4-4.6-2.7 1.2-.8 15-4.4 17.1-4.5.9-.1 2.5 1.4 3.5 3.1zm-26.7 1.3c.7 1.4 1.2 3.6 1.2 4.8 0 1.2.9 5.1 2 8.5 1.8 5.7 2 9.2 2 33 0 14.7-.5 35.9-1 47.1-.9 19-.9 20.9 1 28.9 1.1 4.7 1.8 8.7 1.6 8.9-1 1-2.9-1.1-4.5-4.8-1.6-3.6-1.7-8.1-1.3-54.6.4-50.1.4-50.9-1.7-56.8-3.9-10.8-4.2-12.1-3.1-14.9 1.2-3.3 2.4-3.3 3.8-.1zm-132.4 2c15.4 2.5 25.2 6.4 28.2 11 2 3.1 4.4 13.9 3.4 15.5-1.3 2-3.6 0-4.7-4.3-.7-2.3-2.2-5.2-3.5-6.3-8.1-7.3-36.1-12-61.8-10.4-6.3.4-11.7.5-11.9.4-.2-.2.8-2.2 2.4-4.5l2.7-4.2 18.1.7c9.9.3 22.1 1.3 27.1 2.1zm-62 22.5c-5.5 8.2-17.2 26.1-26.1 39.6L82 648.3l-2.4-5.4c-5-10.8-5.7-25.3-1.9-36.5 4.9-14.7 19-27.3 37.2-33.4 6.6-2.2 18.3-4.9 19-4.4.2.2-4.1 7.1-9.5 15.4zm676.3.2c-.2 1.3-.4.3-.4-2.2s.2-3.5.4-2.3c.2 1.3.2 3.3 0 4.5zM144.5 581c.7 1.2-1.2 5-2.5 5-1.1 0-1.4-4.3-.3-5.3.9-1 2.1-.9 2.8.3zm-81.8 45.7c-.3 1-.5.2-.5-1.7s.2-2.7.5-1.8c.2 1 .2 2.6 0 3.5zm1 6.5c-.3.7-.5.2-.5-1.2s.2-1.9.5-1.3c.2.7.2 1.9 0 2.5zm2.9 7.5c.7 1.8 1.1 3.3.8 3.3-.7 0-3.4-6.7-3.3-8.2 0-.8.3-.8.6.2.3.8 1.2 3 1.9 4.7zm124.8 1.5c2 9.4 2.5 13.1 2 13.9-2.7 4.4-7-8.7-4.8-14.5.9-2.3 2.3-2 2.8.6zm625.5 21.9c2.3 4.5 4.1 8.7 4.1 9.5 0 1.8-4.9 3-6.9 1.7-.9-.6-1.9-2.8-2.3-4.9-1-5.8-.9-14.4.1-14.4.6 0 2.8 3.7 5 8.1zm-13.2 4.1c-.2 1.8-.4.4-.4-3.2s.2-5 .4-3.3c.2 1.8.2 4.8 0 6.5zm-527.3 5.7c2.2 3.2 2.7 4.8 2.4 8.3l-.4 4.3-4.2-.1c-9.6-.2-12.8-10.8-4.7-15.2 3.2-1.8 4.1-1.4 6.9 2.7zm-21.1 7.9c2 9.1 2 9.2.7 9.2-2.1 0-5-6.5-5-11.1 0-4.3.5-5.9 2-5.9.4 0 1.4 3.5 2.3 7.8zm185-6.1c.8.7-1.1 3.3-2.4 3.3-.5 0-.9-.9-.9-2 0-1.9 2-2.7 3.3-1.3zm3.7 3.2c0 1.1-.4 2.3-1 2.6-.6.4-1-.5-1-1.9s.5-2.6 1-2.6c.6 0 1 .9 1 1.9zM78 688c0 1.3-.7 2-2 2-1.9 0-2.7-2-1.3-3.3 1.3-1.4 3.3-.6 3.3 1.3zm359.6 13.6c-.3.9-1 1.2-1.6.9-1.4-.9-1.3-3.8.3-5.4 1-1 1.3-.8 1.5.9.2 1.2.1 2.8-.2 3.6zM65.1 704c-2.3 2-4.1 2.6-4.1 1.4 0-1.1 3.4-3.3 5-3.3 1 0 .8.6-.9 1.9z"/><path d="M554.5 559.1c-16.4 4-33.7 14.6-43.7 26.6-16.3 19.6-19.5 50-7.7 73.4 4 8.1 15.9 20.1 25.4 25.7 8.9 5.2 22.5 9.8 34 11.3 10.6 1.4 43.3.7 51.5-1.1 13.2-2.8 19.3-6 11.5-6-1.9 0-3.5-.5-3.5-1 0-.6.6-1 1.3-1 14.1-.2 54.8-11.8 71-20.2 6.9-3.6 7.7-4.3 7.7-6.9 0-3.8-1.8-3.8-11.1.2-8.2 3.5-24.7 9-35.8 12-16.5 4.4-24 5.3-45.1 5.4-18.3 0-21.5-.2-29.5-2.3-31.2-8.1-47.8-27-46.2-52.3 1.3-19.7 12.5-34.3 34.2-44.4 11.3-5.3 27.5-9.7 27.5-7.5 0 .6-.8 1-1.7 1.1-1.1 0-1.3.3-.5.6 2.1.8 1.3 2.1-1 1.6-1.3-.3-2-.3-1.6.2.4.4 8.7.9 18.5 1.1 20.7.6 35.9 2.5 42 5.5 2.3 1.1 6.1 4.2 8.4 6.7 5 5.8 7.3 7.1 12.2 7.2 3.4 0 4-.4 6.5-4.6 1.5-2.6 4.7-7.8 7.1-11.6 5.1-8.1 5-8.5-4.4-11.6-20.8-6.9-60.5-10.8-85.7-8.3-6.8.7-13.3 1.4-14.4 1.6-1.6.4-2.1 0-2-1.3.2-2.6-14.4-2.7-24.9-.1zm45.9 10.7c.2.4-.4.9-1.5.9-1.1.1-1.7-.2-1.4-.8.7-1.1 2.2-1.2 2.9-.1zm4.3-.2c-.3.3-1.2.4-1.9.1-.8-.3-.5-.6.6-.6 1.1-.1 1.7.2 1.3.5zm-79.7 49c-1.7 10 .5 22.7 5.7 32 4.3 7.8 13.7 16.4 23.3 21.3 4.7 2.3 7.4 3.9 6 3.6-10.1-2.8-25.6-15.6-30.9-25.5-5.5-10.3-7.3-24.4-4.4-35.8 1.1-4.4 1.3-1.5.3 4.4zM694 664c-.8.6-2.2 1-3 .9-.9 0-.5-.6 1-1.4 2.7-1.4 4.4-1 2 .5z"/><path d="M672 661.1c-6.6 3.4-6.9 5.2-.5 3.6.6-.1 3.6-1.3 6.8-2.6 4.1-1.7 5.4-2.6 4.5-3.2-2.2-1.4-5-.9-10.8 2.2zM716.5 666.2c-10.6 9.2-9.6 23.2 2 28.8 2.3 1.1 5.7 2 7.6 2 4.8 0 9.9-3.3 9.9-6.4 0-1.6.7-2.7 2-3.1 3-.9 7-6.3 7-9.4 0-3.8-3.9-7.7-9.1-9.2-2.4-.7-5.4-2.3-6.7-3.6-3.4-3.4-8.2-3.1-12.7.9zM464 668.7c-3.6 1.4-7 5.7-7 8.9 0 7.2 6.2 16.4 11 16.4 2.9 0 5-1.6 5-4 .1-.8 1.8-2.7 4-4.2 6.4-4.5 6.4-10.2-.1-15.1-2.7-1.9-10.1-3.1-12.9-2zM148.5 245.1c-14.9 2.5-31.5 9.2-45.8 18.7C95.9 268.2 79 283.4 79 285c0 .5 2.3-1.6 5.2-4.6 5.6-5.9 14.1-12.6 15.5-12.2.4.2.9-.1 1-.6.3-1.7 2.8-2.6 7.3-2.6 2.5 0 11-1.4 19-3.1 37.8-7.9 66.4-3.4 93.4 14.5 18.2 12.1 31.5 28.8 39.1 49 4.6 12.2 5.9 19.9 5.8 35.6 0 12.3-.4 16-2.6 24.3-7.9 30-27.9 54.2-56.7 68.6-10.8 5.4-20.4 8.6-36.5 12.1-5.5 1.2-12 2.9-14.5 3.8-6.8 2.4-16.2 2-24.5-1-10.5-3.9-11.3-4.1-8.4-2.4 4.5 2.6 17.9 6.6 27.4 8.1 23.3 3.8 48.5.1 69-10.2 12.3-6.1 20.7-12.4 32-23.8 15.6-15.8 24.3-31.2 30.2-53.2 2.4-8.8 2.6-11.6 2.7-27.3 0-15.8-.3-18.5-2.7-27.7-5.7-21.7-16-39.5-31.4-54.7-17.4-17.1-37.3-27.7-60.3-32-8.9-1.7-31.8-2-40.5-.5zM710 245.5c-36.5 7.4-66.6 30.4-83 63.2-8.5 17.2-11.5 30.9-11.4 52.3.1 14.3.4 17.8 2.6 26.1 5.4 20.2 14.2 36.3 27.8 51.1 22.5 24.4 53 37.8 85.8 37.8 44.5 0 85.3-26.3 104.8-67.4 7.6-16.1 10.5-30 10.5-49.6 0-31.2-11.3-58.1-33.6-80.5-17.2-17.3-34.1-26.8-57.5-32.1-8.6-2-13.1-2.4-25-2.3-8 0-17.4.7-21 1.4zm-76.5 111.2c0 16.3.3 19.9 2.2 26.9 2.7 9.8 8 22.5 12.8 30.8l3.5 6.1-4-4.5c-5.7-6.2-13.5-22.6-16.1-33.5-1.8-7.7-2-11.1-1.6-23.5.2-8 1-16 1.7-17.8.6-1.7 1.3-3.2 1.3-3.2.1 0 .2 8.4.2 18.7zM72.9 292.7c-1.3 1.6-1.2 1.7.4.4.9-.7 1.7-1.5 1.7-1.7 0-.8-.8-.3-2.1 1.3zM103 456.4c0 .2.7.7 1.6 1 .8.3 1.2.2.9-.4-.6-1-2.5-1.4-2.5-.6zM116.7 464.1c.7.7 1.5 1 1.8.7.3-.3-.2-.9-1.2-1.2-1.4-.6-1.5-.5-.6.5zM864 670.3c-10.6 5.6-6.2 17.2 6.5 17.2 12 0 16.5-10.1 7.5-16.6-4.3-3.1-8.9-3.3-14-.6zM17.5 747.4C8.4 751.7 3 760 3 770c0 16.7 15.9 29.1 31.5 24.5C42.1 792.3 51 784 51 779c0-.6-5.2-1-14.9-1-19.9 0-21.2 1.9-1.6 2.2l14.6.3-3 4.2c-9.9 13.6-32 10.8-39.1-4.9-3.9-8.5-1.9-19.4 4.5-26.2 6.7-6.9 18.4-8.6 27-4.1 5.2 2.8 7.4 2.5 3.5-.5-6-4.5-16.8-5.3-24.5-1.6zM151 770v25h17c10.7 0 17-.4 17-1s-6-1-16-1h-16v-24c0-15.3-.4-24-1-24s-1 9-1 25zM239 767c0 14 .4 22 1 22s1-8 1-22-.4-22-1-22-1 8-1 22zM275.4 747.3c-15.9 7.6-19.3 27.5-7 40.5 6 6.5 14.9 9.1 23.4 7 6.3-1.5 11.1-4.6 11.2-7 0-.4-1.6.3-3.5 1.7-6.8 4.5-16.7 5.1-24 1.3-17.5-9.1-16.2-35.4 2-42.4 6.4-2.4 15.1-1.6 20.4 1.9 4.5 3 5.1 3.2 5.1 1.7 0-.5-1.9-2.2-4.2-3.7-6.3-3.9-16.4-4.3-23.4-1zM513.7 745.7c-1.1 1.1-.8 49.1.3 49.8.7.4 1-8.2 1-24.9 0-14.1-.1-25.6-.3-25.6-.2 0-.7.3-1 .7zM741.6 745.7c-1 1-.7 43.3.3 43.3 1.8 0 2-3.3 2-23-.1-18.4-.5-22.1-2.3-20.3zM788.7 746c-7.3 2.2-12.4 9.4-10.9 15.2 1.6 6.7 5.6 9 19.2 11.2 5.6.9 10.4 2.3 11.9 3.4 3.6 2.7 4.7 6.3 3.1 10.1-3.2 7.7-15.9 10.1-25.4 4.8-2.7-1.5-5.2-2.5-5.5-2.1-1.1 1 4.4 4.4 9.9 6.1 13.9 4.1 28-6.1 22.6-16.6-2.4-4.6-5.1-5.9-16-7.6-14.5-2.3-17.6-4.5-17.6-11.9 0-6.7 7-11.6 16.7-11.6 5.7 0 13.6 2.6 16.8 5.5 3.6 3.4 4.6 2.3 1.2-1.3-5-5.2-17.6-7.7-26-5.2zM852.2 746.3c-4.7 1.5-11.7 8-14.2 13.1-2.8 5.8-2.9 14.8-.2 20.8 2.8 6.3 9.9 12.4 16.8 14.4 4.8 1.4 6.6 1.5 11 .5 5.5-1.3 11.4-4.6 12.2-6.9.2-.8-1.2-.3-3.4 1.2-5.3 3.4-11.6 4.7-17.8 3.5-21.1-4-25.6-33.2-6.6-43.2 4.8-2.5 6.3-2.8 12-2.5 5 .3 7.5 1 10.8 3.2 2.4 1.5 4.6 2.5 4.9 2.2 1-1-1.1-2.9-6.1-5.2-5.5-2.6-13.4-3.1-19.4-1.1zM433 764.2c0 6.7-.9 8.8-3.6 8.8-1.3 0-2.4.4-2.4 1 0 .5 1.1 1 2.5 1 2.4 0 2.5.3 2.5 5.3 0 2.9.6 6.2 1.4 7.2 1.7 2.3 7.1 2.4 9.3.2 2.3-2.3.9-3.2-1.9-1.3-2.8 2-3.3 2-5.2 0-1-1-1.6-3.3-1.6-6.5V775h4c2.2 0 4-.5 4-1 0-.6-1.6-1-3.5-1H435v-6.5c0-3.7-.4-6.5-1-6.5-.5 0-1 1.9-1 4.2zM449.1 761.4c-.9 1-.9 1.6-.1 2.1 1.7 1 3.7-1.2 2.4-2.5-.8-.8-1.5-.6-2.3.4zM548 766.5v6.5h-3.1c-1.7 0-2.8.4-2.4 1 .3.5 1.7 1 3.1 1 2.3 0 2.4.3 2.4 6 0 5.2.3 6.2 2.4 7.5 2.6 1.8 6.2.9 8.6-2.1 1.6-1.8 1.3-1.8-3.2.5-4.1 2.1-5.8.2-5.8-6.5V775h4c2.2 0 4-.5 4-1 0-.6-1.8-1-4-1h-4v-6.5c0-3.7-.4-6.5-1-6.5s-1 2.8-1 6.5zM667.5 761c-.4.6-.3 1.6.3 2.2.6.6 1.2.6 1.7-.2.4-.6.3-1.6-.3-2.2-.6-.6-1.2-.6-1.7.2zM54.2 773.6c-1.2.8-2.2 2-2.2 2.7 0 .8.3.8 1.2-.1.7-.7 2-1.2 3-1.2 1.6 0 1.8.9 1.8 7 0 4 .4 7 1 7s1-2.2 1-4.9c0-4.2.4-5.3 2.6-7 4.6-3.6 9.4-2 5.8 2-.9 1-1.4 2.2-1.1 2.6 1 .9 4.7-2.7 4.7-4.7 0-4.1-6.3-5.5-9.5-2-1.8 2-1.8 2-2.9-.2-1.5-2.8-2.7-3.1-5.4-1.2zM75.8 772.6c-.5.4-.8 3.3-.8 6.5 0 7 2.1 10.2 6.9 10.2 5 0 7.4-3.1 7.9-10.1.2-3.3 0-6.2-.6-6.5-.5-.4-1.1 1.9-1.4 5.7-.7 7.9-1.1 8.6-5.3 8.6-4.3 0-4.9-1-5.5-8.8-.3-3.5-.8-6-1.2-5.6zM96.4 773.5c-.4 1.1-1.2 2.4-1.8 2.8-.8.6-.7 1 .2 1.4.8.3 1.2 3.5 1.2 10.8 0 5.9.4 10.7 1 11 .6.4 1-1.5 1-4.9V789h3.9c7.1 0 11.6-8.4 7.3-13.6-2.3-2.8-4.5-3.5-8.1-2.4-2.1.6-3.1.5-3.4-.3-.3-.7-.8-.3-1.3.8zm11.6 3.6c1.5 2.7.3 7.7-2.1 9-1.1.5-3.2.9-4.7.7-2.5-.3-2.7-.7-3-5.2-.4-5.5.5-6.6 5.5-6.6 2.2 0 3.6.6 4.3 2.1zM120 772.7c-9 3.2-7.3 16.6 2.1 16.6 4.5 0 9.3-5.4 8.5-9.4-1-4.9-6.5-8.6-10.6-7.2zm7.8 5.5c2 4.2-.2 8.2-4.7 8.6-6 .6-9.4-5.6-5.4-10 2.6-2.9 8.4-2.1 10.1 1.4z"/><path d="M177 772.7c-6.6 2.4-8.1 10.3-2.9 14.8 2.5 2.1 3.8 2.5 6.3 2 3.7-.8 8.1-4.5 5.4-4.5-.9 0-2 .4-2.3 1-1.6 2.5-10.5.4-10.5-2.5 0-1.2 1.5-1.5 7-1.5 6.7 0 7-.1 7-2.3 0-4-6.3-8.3-10-7zm7 4.2c1.6 3 1.4 3.1-5 3.1s-6.6-.1-5-3.1c.8-1.4 2.1-1.9 5-1.9s4.2.5 5 1.9zM203 772.6c-5.7 1.9-8.8 3.9-10.8 6.8-2.9 4.2-2.8 7.2.2 9.1 2.1 1.4 2.8 1.4 5.8.2 1.9-.8 4.4-2.7 5.6-4.2l2.2-2.8.1 2.4c.2 5.7-.4 9.5-1.8 11.1-2.2 2.4-6.8 2.3-9.4-.3-2.9-2.9-3.8-1.4-.9 1.6 3.1 3.3 7.9 3.3 11.7.1 2.7-2.4 2.8-2.6 2.8-13.3 0-10.1-.1-10.8-2-11-1.1-.1-2.7 0-3.5.3zm.6 8.8c-4 6.8-11.6 8.4-11.6 2.4 0-2.8 5.3-7.4 9.7-8.5 4.9-1.2 5.3.3 1.9 6.1zM225.1 773c-6.7 1.6-12.8 8.1-11.7 12.5 1.4 5.5 8.5 4.9 13.6-1.3l3-3.7v4.3c0 2.3.5 4.2 1 4.2.7 0 1-3 .8-8.2-.3-9.1-.5-9.3-6.7-7.8zm3.9 3c0 2.7-4.3 9.1-7 10.5-4.2 2.2-7.5.5-6.5-3.3.8-3.2 2-4.6 6-6.6 3.4-1.8 7.5-2.1 7.5-.6zM312.5 773c-6 2.4-7.6 9.3-3.2 13.7 5.3 5.3 13.7 1.8 13.7-5.7 0-5.6-5.7-10-10.5-8zm6.8 3.4c2 1.6 2.2 6.4.3 8.8-1.5 2.1-6.4 2.3-8.7.5-2.6-2-3-4.7-1.2-7.8 1.3-2.2 2.5-2.9 4.8-2.9 1.6 0 3.8.7 4.8 1.4zM326.7 773.8c-2.7 1.7-3.5 3.2-1.8 3.2.6 0 1.3-.5 1.6-1 .3-.6 1.5-1 2.6-1 1.7 0 1.9.7 1.9 7 0 4 .4 7 1 7s1-2.2 1-4.9c0-4.2.4-5.3 2.6-7 4.6-3.6 9.1-1.8 5.6 2.2-.8.9-1.2 2-.8 2.5.8.7 4.6-3.3 4.6-4.9 0-.5-.9-1.8-2-2.9-2.2-2.2-4.2-1.8-7.7 1.3-2 1.8-2.3 1.8-2.3.4 0-2.8-3.2-3.7-6.3-1.9zM348 773.7c0 1.2-.6 2.4-1.2 2.7-1 .5-1 .7 0 1.2.8.4 1.2 3.7 1.2 11.5 0 7.1.4 10.8 1 10.4.6-.3 1-2.8 1-5.6V789h3.8c6.4 0 10.6-6.3 8.1-12.2-1.5-3.6-4.2-4.8-8.5-3.8-2 .5-3.7.3-4.3-.3-.8-.8-1.1-.5-1.1 1zm12.4 4.6c1.4 4-1.8 8.1-6.7 8.5l-3.7.3v-5.4c0-2.9.3-5.7.7-6.1.4-.4 2.5-.6 4.7-.4 3.4.3 4.2.8 5 3.1zM372.5 772.8c-6.4 1.3-8.8 9.7-4 14.2 7.5 7 18.6-3.9 11.6-11.4-2.5-2.7-4.6-3.4-7.6-2.8zm6.3 3.4c1.6 1.6 1.5 6.9-.2 9-1.6 2.1-6.4 2.3-8.8.4-2.3-1.7-2.3-6.4-.1-8.8 1.8-2 7.3-2.4 9.1-.6zM385.6 773.9c-1.6 1.1-2.3 2.1-1.8 2.5.6.3 1.3.2 1.7-.4.3-.5 1.5-1 2.6-1 1.7 0 1.9.7 1.9 7 0 4 .4 7 1 7s1-2.2 1-4.9c0-4.2.4-5.3 2.6-7 4.5-3.6 9.4-2 5.9 1.9-1 1.1-1.2 2-.6 2.4.6.4 1.7-.4 2.6-1.8 1.3-1.9 1.4-2.9.5-4.5-1.7-3.2-5.2-3.1-8.7.2-2 1.7-2.3 1.8-2.3.4 0-2.9-3.3-3.8-6.4-1.8zM416.9 772.9c-10 3.2-15.3 11.8-9.4 15.7 3 2 5.6 1.2 10.1-3.1l3.4-3.3.1 2.6c.1 1.5.1 3 0 3.4 0 .5.6.8 1.4.8 1.3 0 1.5-1.4 1.3-8.3-.3-9-.9-9.6-6.9-7.8zm3.6 4.3c-2.3 7.4-9.1 12.6-12.3 9.4-3.5-3.5 3.6-11.6 10.1-11.6 2.5 0 2.7.3 2.2 2.2zM449.7 772.7c-1.1 1.1-.8 16.3.3 16.3.6 0 1-3.5 1-8.5 0-8.5-.1-9.1-1.3-7.8zM455.7 772.6c-.9.9 7.6 16.4 8.8 16.1 1-.3 8.4-13.4 8.5-15 0-.4-.4-.7-1-.7-.5 0-2.5 3-4.4 6.7l-3.3 6.7-3.1-5.9c-4-7.6-4.7-8.7-5.5-7.9zM481.4 773c-2.7 1.1-6.4 5.7-6.4 8.1 0 1 1.3 3.3 2.8 5.1 3.6 3.9 8 4.2 11.7.8 6.2-5.8-.3-17.1-8.1-14zm6.8 3.7c2.1 1.9 2.3 6 .4 8.6-2.2 2.9-8.7 2-10.4-1.5-1.1-2.3-1-3.2.3-5.8 1.2-2.4 2.2-3 4.7-3 1.7 0 4 .7 5 1.7zM525.1 779.2c-.1 4.3-.1 8.1-.2 8.5 0 .4.4.9 1 1.1.7.2 1.1-1.7 1.1-5.2 0-4.8.3-5.8 2.4-7.2 1.4-.8 3.5-1.4 4.8-1.2 2.1.3 2.3.9 2.6 7 .4 9 2.2 8.8 2.2-.2 0-6.2-.2-7.1-2.4-8.5-2.1-1.4-2.8-1.4-5.8-.2-3.1 1.3-3.6 1.3-4.6-.2-.8-1.2-1.1.1-1.1 6.1zM567.2 773.7c-8.2 4-5.3 15.6 3.8 15.6 3.3 0 9.2-3.4 7.1-4.1-.7-.2-1.8.1-2.4.7-1.5 1.5-8 1.4-9.5-.1-2.7-2.7-1.3-3.7 5.6-4 5.9-.3 6.7-.6 7-2.3.3-2.2-3.1-5.9-6.3-6.9-1.1-.3-3.5.2-5.3 1.1zm9 3.6c1.5 2.3.7 2.7-5.3 2.7-5.2 0-6-.2-5.7-1.7.5-2.7 4.6-4.3 7.7-3.2 1.4.6 2.9 1.6 3.3 2.2zM594 772.8c-.8.2-2.2 1.1-3.1 1.9-1.4 1.2-1.8 1.1-2.9-.2-1.6-1.9-5.4-1.9-7 0-1.7 2-.5 3.2 1.5 1.5 3-2.5 4.5-.5 4.5 6.5 0 3.7.4 6.5 1 6.5s1-2.2 1-4.8c0-5.4 2.8-9.2 6.8-9.2 2.4 0 3 2.8 1 4.8-.6.6-.9 1.5-.5 1.8.9 1 3.7-2.2 3.7-4.3 0-3.4-2.9-5.5-6-4.5zM609.2 773.6c-1.8.7-3.2.9-3.2.4 0-.6-.4-1-1-1s-1 3.4-1 8.1c0 5.1.4 7.8 1 7.4.6-.3 1-2.8 1-5.5 0-4.1.4-5.2 2.4-6.6 1.4-.8 3.5-1.4 4.8-1.2 2.1.3 2.3.9 2.6 7 .2 3.8.7 6.8 1.2 6.8 1.5 0 1.2-13.6-.2-14.7-2.5-1.9-4.4-2.1-7.6-.7zM634.9 772.9c-10.2 3.2-15.5 11.7-9.5 15.6 3 2 6.9.7 10.8-3.7l2.8-3.2v3.7c0 2 .5 3.7 1 3.7.6 0 1-3.5 1-8.5 0-9.2-.1-9.4-6.1-7.6zm3.6 3.8c-2.1 8.4-13.5 15.1-13.5 7.9 0-4.3 4.1-8.1 10.5-9.7 1.7-.4 3.2-.7 3.4-.8.2-.1 0 1.1-.4 2.6zM653.3 772.7c-2.7.5-7.3 5.8-7.3 8.4 0 1 1.3 3.3 2.8 5 2.3 2.6 3.6 3.2 7.1 3.2 2.5 0 4.9-.7 5.8-1.6 1.5-1.4 1.1-1.5-3.8-1-4.6.4-5.7.2-7.6-1.6-2.9-2.7-2.9-5.5-.2-8.2 1.8-1.8 2.9-2.1 7.5-1.6 3 .3 5.4.3 5.4.1 0-.5-6.7-3.5-7.2-3.3-.2.1-1.3.4-2.5.6zM667.9 772.7c-.6 6 0 15.8.9 16.1 1.5.5 1.7-15.4.2-16.3-.5-.3-1-.3-1.1.2zM681.5 772.8c-3.7.7-6.5 4.3-6.5 8.2 0 6.4 5.9 10.1 11.7 7.4 9.1-4.4 4.7-17.6-5.2-15.6zm7.5 5.4c1.3 2.5 1.3 3.1 0 5.5-3 5.5-12 3.5-12-2.5 0-6.4 8.8-8.6 12-3zM696.9 773c-.1.8-.3 4.8-.3 8.7-.1 5.2.3 7.3 1.2 7.3.8 0 1.2-1.8 1.2-5.5 0-4.7.3-5.7 2.4-7.1 1.4-.8 3.5-1.4 4.8-1.2 2.1.3 2.3.9 2.6 7 .4 9 2.2 8.8 2.2-.2 0-6.2-.2-7.1-2.4-8.5-2.1-1.4-2.8-1.4-5.8-.2-3.1 1.3-3.6 1.3-4.6-.2-.9-1.4-1.1-1.4-1.3-.1zM726.7 773.2c-8.8 2.3-13.9 11.7-8.3 15.3 2.9 1.9 5.1 1.2 9.9-3.3l3.7-3.6v3.7c0 2 .5 3.7 1 3.7.6 0 1-3.5 1-8.5 0-9.4.2-9.3-7.3-7.3zm5.3 2.3c0 1.1-3.3 7-4.9 8.9-3.8 4.3-9.1 4.2-9.1-.3 0-2.7 2.5-5.7 6.5-7.9 2.1-1.2 7.5-1.6 7.5-.7zM752 789.2c-1.1 1.8-2 3.6-2 4 0 1.8 1.6.6 3.5-2.5 2.7-4.5 2.8-4.7 1.6-4.7-.6 0-2 1.5-3.1 3.2zM825.2 787.6c.4 2.1 2.2 2.3 2.6.1.2-1-.3-1.7-1.3-1.7s-1.5.6-1.3 1.6zM885.5 787c-.8 1.3.4 3.2 1.6 2.5 1.2-.8 1.2-3.5 0-3.5-.6 0-1.3.4-1.6 1z"/></svg>